<svg width="218" height="23" viewBox="0 0 218 23" fill="none" xmlns="http://www.w3.org/2000/svg">
<rect width="31" height="20" rx="2" fill="#635BFF"/>
<g clip-path="url(#clip0_1201_1538)">
<path fill-rule="evenodd" clip-rule="evenodd" d="M27.9987 10.1596C27.9987 8.45304 27.1721 7.10645 25.5922 7.10645C24.0056 7.10645 23.0457 8.45304 23.0457 10.1463C23.0457 12.1528 24.1789 13.1661 25.8055 13.1661C26.5988 13.1661 27.1988 12.9861 27.6521 12.7328V11.3995C27.1988 11.6262 26.6788 11.7662 26.0188 11.7662C25.3722 11.7662 24.7989 11.5395 24.7256 10.7529H27.9854C27.9854 10.6662 27.9987 10.3196 27.9987 10.1596ZM24.7056 9.52631C24.7056 8.77302 25.1655 8.4597 25.5855 8.4597C25.9922 8.4597 26.4255 8.77302 26.4255 9.52631H24.7056Z" fill="white"/>
<path fill-rule="evenodd" clip-rule="evenodd" d="M20.4724 7.10645C19.8191 7.10645 19.3991 7.4131 19.1658 7.62642L19.0791 7.21311H17.6125V14.986L19.2791 14.6327L19.2858 12.7461C19.5258 12.9195 19.8791 13.1661 20.4657 13.1661C21.659 13.1661 22.7456 12.2062 22.7456 10.0929C22.7389 8.15972 21.639 7.10645 20.4724 7.10645ZM20.0724 11.6995C19.6791 11.6995 19.4458 11.5595 19.2858 11.3862L19.2791 8.91301C19.4524 8.71969 19.6924 8.58636 20.0724 8.58636C20.679 8.58636 21.099 9.26633 21.099 10.1396C21.099 11.0329 20.6857 11.6995 20.0724 11.6995Z" fill="white"/>
<path fill-rule="evenodd" clip-rule="evenodd" d="M15.3193 6.71324L16.9926 6.35326V5L15.3193 5.35331V6.71324Z" fill="white"/>
<path d="M16.9926 7.21973H15.3193V13.0527H16.9926V7.21973Z" fill="white"/>
<path fill-rule="evenodd" clip-rule="evenodd" d="M13.5261 7.71358L13.4194 7.22027H11.9795V13.0533H13.6461V9.10017C14.0394 8.58686 14.706 8.68019 14.9127 8.75352V7.22027C14.6993 7.14028 13.9194 6.99362 13.5261 7.71358Z" fill="white"/>
<path fill-rule="evenodd" clip-rule="evenodd" d="M10.1931 5.77344L8.56648 6.12008L8.55981 11.4598C8.55981 12.4464 9.29977 13.173 10.2864 13.173C10.833 13.173 11.233 13.073 11.453 12.953V11.5998C11.2397 11.6864 10.1864 11.9931 10.1864 11.0065V8.63995H11.453V7.22002H10.1864L10.1931 5.77344Z" fill="white"/>
<path fill-rule="evenodd" clip-rule="evenodd" d="M5.68657 8.91301C5.68657 8.65303 5.89989 8.55303 6.25321 8.55303C6.75985 8.55303 7.39981 8.70636 7.90645 8.97967V7.41309C7.35315 7.19311 6.80651 7.10645 6.25321 7.10645C4.89995 7.10645 4 7.81307 4 8.99301C4 10.8329 6.53319 10.5396 6.53319 11.3329C6.53319 11.6395 6.26654 11.7395 5.89323 11.7395C5.33993 11.7395 4.6333 11.5129 4.07333 11.2062V12.7928C4.69329 13.0594 5.31993 13.1728 5.89323 13.1728C7.27982 13.1728 8.2331 12.4861 8.2331 11.2929C8.22643 9.30632 5.68657 9.65964 5.68657 8.91301Z" fill="white"/>
</g>
<path d="M66.6875 7.90625H52.3125C51.9155 7.90625 51.5938 8.22805 51.5938 8.625V18.6875C51.5938 19.0845 51.9155 19.4062 52.3125 19.4062H66.6875C67.0845 19.4062 67.4062 19.0845 67.4062 18.6875V8.625C67.4062 8.22805 67.0845 7.90625 66.6875 7.90625Z" stroke="white" stroke-width="1.07812" stroke-linecap="round" stroke-linejoin="round"/>
<path d="M59.5 14.5547C59.9962 14.5547 60.3984 14.1524 60.3984 13.6562C60.3984 13.1601 59.9962 12.7578 59.5 12.7578C59.0038 12.7578 58.6016 13.1601 58.6016 13.6562C58.6016 14.1524 59.0038 14.5547 59.5 14.5547Z" fill="white"/>
<path d="M55.9062 7.90625V5.03125C55.9062 4.07813 56.2849 3.16404 56.9588 2.49009C57.6328 1.81613 58.5469 1.4375 59.5 1.4375C60.4531 1.4375 61.3672 1.81613 62.0412 2.49009C62.7151 3.16404 63.0938 4.07813 63.0938 5.03125V7.90625" stroke="white" stroke-width="1.07812" stroke-linecap="round" stroke-linejoin="round"/>
<path d="M75.6792 3.31818H76.8111L78.7791 8.12358H78.8516L80.8196 3.31818H81.9515V9.5H81.0641V5.02663H81.0067L79.1836 9.49094H78.4471L76.6239 5.02361H76.5666V9.5H75.6792V3.31818ZM85.1881 9.59357C84.7534 9.59357 84.3741 9.49396 84.0501 9.29474C83.7261 9.09553 83.4746 8.81682 83.2955 8.45863C83.1164 8.10044 83.0269 7.68188 83.0269 7.20295C83.0269 6.72201 83.1164 6.30143 83.2955 5.94123C83.4746 5.58102 83.7261 5.30131 84.0501 5.1021C84.3741 4.90288 84.7534 4.80327 85.1881 4.80327C85.6227 4.80327 86.0021 4.90288 86.326 5.1021C86.65 5.30131 86.9016 5.58102 87.0807 5.94123C87.2598 6.30143 87.3493 6.72201 87.3493 7.20295C87.3493 7.68188 87.2598 8.10044 87.0807 8.45863C86.9016 8.81682 86.65 9.09553 86.326 9.29474C86.0021 9.49396 85.6227 9.59357 85.1881 9.59357ZM85.1911 8.83594C85.4728 8.83594 85.7062 8.76148 85.8914 8.61257C86.0765 8.46366 86.2133 8.26545 86.3019 8.01793C86.3924 7.77042 86.4377 7.49775 86.4377 7.19993C86.4377 6.90412 86.3924 6.63246 86.3019 6.38494C86.2133 6.13542 86.0765 5.93519 85.8914 5.78427C85.7062 5.63334 85.4728 5.55788 85.1911 5.55788C84.9074 5.55788 84.6719 5.63334 84.4848 5.78427C84.2996 5.93519 84.1618 6.13542 84.0712 6.38494C83.9827 6.63246 83.9384 6.90412 83.9384 7.19993C83.9384 7.49775 83.9827 7.77042 84.0712 8.01793C84.1618 8.26545 84.2996 8.46366 84.4848 8.61257C84.6719 8.76148 84.9074 8.83594 85.1911 8.83594ZM89.2592 6.74716V9.5H88.3567V4.86364H89.223V5.61825H89.2804C89.387 5.37275 89.554 5.17554 89.7814 5.02663C90.0108 4.87772 90.2996 4.80327 90.6477 4.80327C90.9637 4.80327 91.2404 4.86967 91.4778 5.00249C91.7153 5.13329 91.8994 5.32848 92.0302 5.58807C92.161 5.84766 92.2264 6.16862 92.2264 6.55096V9.5H91.3239V6.65962C91.3239 6.32357 91.2363 6.06096 91.0613 5.8718C90.8862 5.68063 90.6457 5.58505 90.3398 5.58505C90.1306 5.58505 89.9444 5.63033 89.7814 5.72088C89.6204 5.81143 89.4927 5.94425 89.3981 6.11932C89.3055 6.29238 89.2592 6.50166 89.2592 6.74716ZM95.435 9.59357C94.9782 9.59357 94.5848 9.49598 94.2548 9.30078C93.9268 9.10357 93.6732 8.82688 93.4941 8.4707C93.3171 8.11251 93.2285 7.69294 93.2285 7.212C93.2285 6.7371 93.3171 6.31854 93.4941 5.95632C93.6732 5.5941 93.9228 5.31138 94.2427 5.10813C94.5647 4.90489 94.941 4.80327 95.3716 4.80327C95.6332 4.80327 95.8868 4.84653 96.1323 4.93306C96.3778 5.01959 96.5981 5.15542 96.7933 5.34055C96.9885 5.52569 97.1425 5.76616 97.2551 6.06197C97.3678 6.35576 97.4242 6.71295 97.4242 7.13352V7.45348H93.7386V6.77734H96.5398C96.5398 6.53989 96.4915 6.3296 96.3949 6.14648C96.2983 5.96135 96.1625 5.81546 95.9874 5.70881C95.8143 5.60215 95.6111 5.54883 95.3777 5.54883C95.1241 5.54883 94.9028 5.61121 94.7136 5.73597C94.5265 5.85872 94.3816 6.01971 94.2789 6.21893C94.1783 6.41613 94.128 6.63044 94.128 6.86186V7.39009C94.128 7.69999 94.1824 7.9636 94.291 8.18093C94.4017 8.39826 94.5556 8.56428 94.7528 8.67898C94.95 8.79167 95.1805 8.84801 95.4441 8.84801C95.6151 8.84801 95.7711 8.82386 95.9119 8.77557C96.0528 8.72526 96.1745 8.6508 96.2772 8.5522C96.3798 8.4536 96.4583 8.33185 96.5126 8.18697L97.3668 8.34091C97.2984 8.59245 97.1757 8.8128 96.9986 9.00195C96.8235 9.1891 96.6032 9.33499 96.3375 9.43963C96.0739 9.54226 95.7731 9.59357 95.435 9.59357ZM98.8632 11.2386C98.7284 11.2386 98.6057 11.2276 98.495 11.2054C98.3843 11.1853 98.3018 11.1632 98.2475 11.139L98.4648 10.3995C98.6298 10.4438 98.7767 10.4629 98.9055 10.4569C99.0343 10.4508 99.148 10.4025 99.2466 10.312C99.3472 10.2214 99.4357 10.0735 99.5122 9.86825L99.6239 9.56037L97.9275 4.86364H98.8934L100.068 8.46165H100.116L101.29 4.86364H102.259L100.348 10.1188C100.26 10.3603 100.147 10.5645 100.01 10.7315C99.8734 10.9006 99.7104 11.0273 99.5213 11.1119C99.3321 11.1964 99.1128 11.2386 98.8632 11.2386ZM105.429 9.5V3.31818H107.693C108.132 3.31818 108.495 3.39062 108.783 3.53551C109.07 3.67839 109.286 3.87257 109.429 4.11808C109.571 4.36156 109.643 4.63625 109.643 4.94212C109.643 5.19969 109.596 5.41702 109.501 5.5941C109.406 5.76918 109.28 5.91004 109.121 6.01669C108.964 6.12133 108.791 6.1978 108.602 6.24609V6.30646C108.807 6.31652 109.007 6.38293 109.202 6.50568C109.399 6.62642 109.562 6.79847 109.691 7.02184C109.82 7.24521 109.884 7.51687 109.884 7.83683C109.884 8.15276 109.81 8.43649 109.661 8.68803C109.514 8.93756 109.287 9.13577 108.979 9.28267C108.671 9.42756 108.278 9.5 107.799 9.5H105.429ZM106.362 8.70011H107.708C108.155 8.70011 108.475 8.61358 108.668 8.44052C108.861 8.26746 108.958 8.05114 108.958 7.79155C108.958 7.59635 108.908 7.41726 108.81 7.25426C108.711 7.09126 108.57 6.96147 108.387 6.86488C108.206 6.76829 107.991 6.71999 107.741 6.71999H106.362V8.70011ZM106.362 5.99254H107.612C107.821 5.99254 108.009 5.9523 108.176 5.8718C108.345 5.79131 108.479 5.67862 108.577 5.53374C108.678 5.38684 108.728 5.21378 108.728 5.01456C108.728 4.759 108.639 4.54469 108.46 4.37163C108.281 4.19857 108.006 4.11204 107.636 4.11204H106.362V5.99254ZM112.267 9.60263C111.974 9.60263 111.708 9.5483 111.471 9.43963C111.233 9.32895 111.045 9.16897 110.906 8.95969C110.769 8.75041 110.701 8.49384 110.701 8.18999C110.701 7.92839 110.751 7.71307 110.852 7.54403C110.952 7.375 111.088 7.24118 111.259 7.14258C111.43 7.04397 111.622 6.96952 111.833 6.91921C112.044 6.8689 112.259 6.83067 112.479 6.80451C112.756 6.77231 112.982 6.74615 113.155 6.72603C113.328 6.70389 113.454 6.66868 113.532 6.62038C113.611 6.57209 113.65 6.49361 113.65 6.38494V6.36381C113.65 6.1002 113.575 5.89595 113.427 5.75107C113.28 5.60618 113.06 5.53374 112.769 5.53374C112.465 5.53374 112.225 5.60115 112.05 5.73597C111.877 5.86879 111.757 6.01669 111.691 6.17969L110.843 5.98651C110.943 5.70478 111.09 5.47739 111.283 5.30433C111.479 5.12926 111.703 5.00249 111.957 4.92401C112.21 4.84351 112.477 4.80327 112.756 4.80327C112.942 4.80327 113.138 4.8254 113.345 4.86967C113.554 4.91193 113.75 4.99041 113.931 5.10511C114.114 5.21982 114.264 5.38382 114.38 5.59712C114.497 5.80842 114.555 6.0831 114.555 6.42116V9.5H113.674V8.86612H113.638C113.58 8.98284 113.492 9.09754 113.375 9.21023C113.259 9.32292 113.109 9.41649 112.926 9.49094C112.742 9.5654 112.523 9.60263 112.267 9.60263ZM112.464 8.8782C112.713 8.8782 112.927 8.82889 113.104 8.73029C113.283 8.63169 113.419 8.5029 113.511 8.34393C113.606 8.18294 113.653 8.01089 113.653 7.82777V7.23011C113.621 7.26231 113.558 7.2925 113.466 7.32067C113.375 7.34683 113.272 7.36997 113.155 7.39009C113.038 7.4082 112.925 7.42531 112.814 7.44141C112.703 7.45549 112.611 7.46757 112.536 7.47763C112.361 7.49976 112.201 7.53699 112.056 7.58931C111.913 7.64163 111.799 7.71709 111.712 7.8157C111.628 7.91229 111.585 8.04107 111.585 8.20206C111.585 8.42543 111.668 8.59446 111.833 8.70916C111.998 8.82185 112.208 8.8782 112.464 8.8782ZM117.711 9.59357C117.262 9.59357 116.875 9.49195 116.551 9.28871C116.229 9.08345 115.982 8.80072 115.809 8.44052C115.636 8.08031 115.549 7.66779 115.549 7.20295C115.549 6.73207 115.638 6.31652 115.815 5.95632C115.992 5.5941 116.242 5.31138 116.564 5.10813C116.885 4.90489 117.265 4.80327 117.701 4.80327C118.054 4.80327 118.368 4.86867 118.643 4.99947C118.919 5.12826 119.141 5.30936 119.31 5.54279C119.481 5.77622 119.583 6.04889 119.615 6.3608H118.737C118.689 6.14347 118.578 5.95632 118.405 5.79936C118.234 5.6424 118.004 5.56392 117.717 5.56392C117.465 5.56392 117.245 5.63033 117.056 5.76314C116.868 5.89394 116.722 6.08108 116.618 6.32457C116.513 6.56605 116.461 6.8518 116.461 7.18182C116.461 7.51989 116.512 7.81167 116.615 8.05717C116.717 8.30268 116.862 8.49284 117.049 8.62766C117.239 8.76249 117.461 8.8299 117.717 8.8299C117.888 8.8299 118.043 8.79871 118.181 8.73633C118.322 8.67193 118.44 8.58037 118.535 8.46165C118.631 8.34292 118.699 8.20005 118.737 8.03303H119.615C119.583 8.33286 119.485 8.6005 119.322 8.83594C119.159 9.07138 118.941 9.25651 118.667 9.39134C118.396 9.52616 118.077 9.59357 117.711 9.59357ZM121.41 7.92738L121.404 6.82564H121.561L123.409 4.86364H124.489L122.382 7.0973H122.241L121.41 7.92738ZM120.58 9.5V3.31818H121.483V9.5H120.58ZM123.508 9.5L121.848 7.29652L122.47 6.66566L124.616 9.5H123.508ZM79.8627 15.2711C79.8044 15.088 79.7259 14.924 79.6273 14.7791C79.5307 14.6322 79.415 14.5075 79.2802 14.4048C79.1454 14.3002 78.9914 14.2207 78.8184 14.1664C78.6473 14.112 78.4592 14.0849 78.2539 14.0849C77.9058 14.0849 77.5919 14.1744 77.3121 14.3535C77.0324 14.5326 76.8111 14.7952 76.6481 15.1413C76.4871 15.4854 76.4066 15.907 76.4066 16.4061C76.4066 16.9071 76.4881 17.3307 76.6511 17.6768C76.8141 18.023 77.0375 18.2856 77.3212 18.4647C77.6049 18.6438 77.9279 18.7333 78.2901 18.7333C78.6262 18.7333 78.919 18.6649 79.1685 18.5281C79.42 18.3912 79.6142 18.198 79.7511 17.9485C79.8899 17.697 79.9593 17.4012 79.9593 17.0611L80.2008 17.1064H78.432V16.3366H80.8619V17.04C80.8619 17.5591 80.7512 18.0099 80.5298 18.3922C80.3105 18.7725 80.0066 19.0663 79.6183 19.2736C79.2319 19.4809 78.7892 19.5845 78.2901 19.5845C77.7307 19.5845 77.2397 19.4557 76.8171 19.1982C76.3965 18.9406 76.0685 18.5753 75.8331 18.1025C75.5977 17.6275 75.4799 17.0641 75.4799 16.4121C75.4799 15.9191 75.5484 15.4764 75.6852 15.084C75.822 14.6916 76.0142 14.3585 76.2617 14.0849C76.5112 13.8092 76.804 13.5989 77.1401 13.454C77.4782 13.3071 77.8474 13.2337 78.2479 13.2337C78.5819 13.2337 78.8928 13.283 79.1806 13.3816C79.4703 13.4802 79.7279 13.62 79.9533 13.8011C80.1807 13.9822 80.3688 14.1976 80.5178 14.4471C80.6667 14.6946 80.7673 14.9693 80.8196 15.2711H79.8627ZM84.9104 17.5772V14.8636H85.8159V19.5H84.9285V18.6971H84.8802C84.7735 18.9446 84.6025 19.1509 84.3671 19.3159C84.1336 19.4789 83.8428 19.5604 83.4947 19.5604C83.1969 19.5604 82.9333 19.495 82.7039 19.3642C82.4765 19.2314 82.2974 19.0352 82.1666 18.7756C82.0378 18.516 81.9734 18.195 81.9734 17.8127V14.8636H82.8759V17.704C82.8759 18.0199 82.9635 18.2715 83.1385 18.4586C83.3136 18.6458 83.541 18.7393 83.8207 18.7393C83.9897 18.7393 84.1578 18.6971 84.3248 18.6126C84.4938 18.5281 84.6337 18.4003 84.7444 18.2292C84.8571 18.0582 84.9124 17.8408 84.9104 17.5772ZM88.3778 19.6026C88.084 19.6026 87.8184 19.5483 87.581 19.4396C87.3435 19.329 87.1554 19.169 87.0165 18.9597C86.8797 18.7504 86.8113 18.4938 86.8113 18.19C86.8113 17.9284 86.8616 17.7131 86.9622 17.544C87.0628 17.375 87.1986 17.2412 87.3697 17.1426C87.5407 17.044 87.7319 16.9695 87.9432 16.9192C88.1545 16.8689 88.3698 16.8307 88.5891 16.8045C88.8668 16.7723 89.0922 16.7462 89.2653 16.726C89.4383 16.7039 89.5641 16.6687 89.6426 16.6204C89.7211 16.5721 89.7603 16.4936 89.7603 16.3849V16.3638C89.7603 16.1002 89.6858 15.896 89.5369 15.7511C89.39 15.6062 89.1707 15.5337 88.8789 15.5337C88.575 15.5337 88.3356 15.6011 88.1605 15.736C87.9875 15.8688 87.8677 16.0167 87.8013 16.1797L86.9531 15.9865C87.0537 15.7048 87.2006 15.4774 87.3938 15.3043C87.589 15.1293 87.8134 15.0025 88.0669 14.924C88.3205 14.8435 88.5871 14.8033 88.8668 14.8033C89.052 14.8033 89.2482 14.8254 89.4554 14.8697C89.6647 14.9119 89.8599 14.9904 90.041 15.1051C90.2241 15.2198 90.3741 15.3838 90.4908 15.5971C90.6075 15.8084 90.6658 16.0831 90.6658 16.4212V19.5H89.7844V18.8661H89.7482C89.6899 18.9828 89.6023 19.0975 89.4856 19.2102C89.3689 19.3229 89.219 19.4165 89.0359 19.4909C88.8527 19.5654 88.6334 19.6026 88.3778 19.6026ZM88.574 18.8782C88.8236 18.8782 89.0369 18.8289 89.214 18.7303C89.3931 18.6317 89.5289 18.5029 89.6214 18.3439C89.716 18.1829 89.7633 18.0109 89.7633 17.8278V17.2301C89.7311 17.2623 89.6687 17.2925 89.5762 17.3207C89.4856 17.3468 89.382 17.37 89.2653 17.3901C89.1486 17.4082 89.0349 17.4253 88.9242 17.4414C88.8135 17.4555 88.7209 17.4676 88.6465 17.4776C88.4714 17.4998 88.3114 17.537 88.1665 17.5893C88.0237 17.6416 87.909 17.7171 87.8224 17.8157C87.7379 17.9123 87.6957 18.0411 87.6957 18.2021C87.6957 18.4254 87.7782 18.5945 87.9432 18.7092C88.1082 18.8219 88.3185 18.8782 88.574 18.8782ZM91.8679 19.5V14.8636H92.7403V15.6001H92.7886C92.8731 15.3506 93.022 15.1544 93.2353 15.0115C93.4506 14.8667 93.6941 14.7942 93.9658 14.7942C94.0221 14.7942 94.0885 14.7962 94.165 14.8002C94.2435 14.8043 94.3049 14.8093 94.3491 14.8153V15.6786C94.3129 15.6686 94.2485 15.6575 94.1559 15.6454C94.0634 15.6313 93.9708 15.6243 93.8782 15.6243C93.6649 15.6243 93.4748 15.6696 93.3078 15.7601C93.1427 15.8487 93.0119 15.9724 92.9153 16.1314C92.8188 16.2884 92.7705 16.4674 92.7705 16.6687V19.5H91.8679ZM96.4379 19.6026C96.1441 19.6026 95.8785 19.5483 95.641 19.4396C95.4036 19.329 95.2154 19.169 95.0766 18.9597C94.9397 18.7504 94.8713 18.4938 94.8713 18.19C94.8713 17.9284 94.9216 17.7131 95.0222 17.544C95.1229 17.375 95.2587 17.2412 95.4297 17.1426C95.6008 17.044 95.7919 16.9695 96.0032 16.9192C96.2145 16.8689 96.4299 16.8307 96.6492 16.8045C96.9269 16.7723 97.1523 16.7462 97.3253 16.726C97.4984 16.7039 97.6242 16.6687 97.7026 16.6204C97.7811 16.5721 97.8204 16.4936 97.8204 16.3849V16.3638C97.8204 16.1002 97.7459 15.896 97.597 15.7511C97.4501 15.6062 97.2308 15.5337 96.939 15.5337C96.6351 15.5337 96.3956 15.6011 96.2206 15.736C96.0475 15.8688 95.9278 16.0167 95.8614 16.1797L95.0132 15.9865C95.1138 15.7048 95.2607 15.4774 95.4539 15.3043C95.6491 15.1293 95.8734 15.0025 96.127 14.924C96.3805 14.8435 96.6472 14.8033 96.9269 14.8033C97.112 14.8033 97.3082 14.8254 97.5155 14.8697C97.7248 14.9119 97.92 14.9904 98.1011 15.1051C98.2842 15.2198 98.4341 15.3838 98.5508 15.5971C98.6675 15.8084 98.7259 16.0831 98.7259 16.4212V19.5H97.8445V18.8661H97.8083C97.7499 18.9828 97.6624 19.0975 97.5457 19.2102C97.429 19.3229 97.279 19.4165 97.0959 19.4909C96.9128 19.5654 96.6935 19.6026 96.4379 19.6026ZM96.6341 18.8782C96.8836 18.8782 97.0969 18.8289 97.274 18.7303C97.4531 18.6317 97.5889 18.5029 97.6815 18.3439C97.7761 18.1829 97.8234 18.0109 97.8234 17.8278V17.2301C97.7912 17.2623 97.7288 17.2925 97.6362 17.3207C97.5457 17.3468 97.442 17.37 97.3253 17.3901C97.2086 17.4082 97.0949 17.4253 96.9842 17.4414C96.8736 17.4555 96.781 17.4676 96.7065 17.4776C96.5315 17.4998 96.3715 17.537 96.2266 17.5893C96.0837 17.6416 95.969 17.7171 95.8825 17.8157C95.798 17.9123 95.7557 18.0411 95.7557 18.2021C95.7557 18.4254 95.8382 18.5945 96.0032 18.7092C96.1682 18.8219 96.3785 18.8782 96.6341 18.8782ZM100.831 16.7472V19.5H99.928V14.8636H100.794V15.6183H100.852C100.958 15.3728 101.125 15.1755 101.353 15.0266C101.582 14.8777 101.871 14.8033 102.219 14.8033C102.535 14.8033 102.812 14.8697 103.049 15.0025C103.287 15.1333 103.471 15.3285 103.601 15.5881C103.732 15.8477 103.798 16.1686 103.798 16.551V19.5H102.895V16.6596C102.895 16.3236 102.808 16.061 102.633 15.8718C102.457 15.6806 102.217 15.585 101.911 15.585C101.702 15.585 101.516 15.6303 101.353 15.7209C101.192 15.8114 101.064 15.9442 100.969 16.1193C100.877 16.2924 100.831 16.5017 100.831 16.7472ZM107.172 14.8636V15.5881H104.64V14.8636H107.172ZM105.319 13.7528H106.222V18.1387C106.222 18.3137 106.248 18.4455 106.3 18.5341C106.352 18.6206 106.42 18.68 106.502 18.7122C106.587 18.7424 106.678 18.7575 106.777 18.7575C106.849 18.7575 106.913 18.7524 106.967 18.7424C107.021 18.7323 107.064 18.7243 107.094 18.7182L107.257 19.4638C107.205 19.4839 107.13 19.504 107.033 19.5241C106.937 19.5463 106.816 19.5584 106.671 19.5604C106.434 19.5644 106.212 19.5221 106.007 19.4336C105.802 19.3451 105.636 19.2082 105.509 19.0231C105.382 18.8379 105.319 18.6055 105.319 18.3258V13.7528ZM110.119 19.5936C109.662 19.5936 109.269 19.496 108.939 19.3008C108.611 19.1036 108.357 18.8269 108.178 18.4707C108.001 18.1125 107.913 17.6929 107.913 17.212C107.913 16.7371 108.001 16.3185 108.178 15.9563C108.357 15.5941 108.607 15.3114 108.927 15.1081C109.249 14.9049 109.625 14.8033 110.056 14.8033C110.317 14.8033 110.571 14.8465 110.816 14.9331C111.062 15.0196 111.282 15.1554 111.477 15.3406C111.673 15.5257 111.827 15.7662 111.939 16.062C112.052 16.3558 112.108 16.7129 112.108 17.1335V17.4535H108.423V16.7773H111.224C111.224 16.5399 111.176 16.3296 111.079 16.1465C110.982 15.9614 110.847 15.8155 110.671 15.7088C110.498 15.6022 110.295 15.5488 110.062 15.5488C109.808 15.5488 109.587 15.6112 109.398 15.736C109.211 15.8587 109.066 16.0197 108.963 16.2189C108.862 16.4161 108.812 16.6304 108.812 16.8619V17.3901C108.812 17.7 108.866 17.9636 108.975 18.1809C109.086 18.3983 109.24 18.5643 109.437 18.679C109.634 18.7917 109.865 18.848 110.128 18.848C110.299 18.848 110.455 18.8239 110.596 18.7756C110.737 18.7253 110.859 18.6508 110.961 18.5522C111.064 18.4536 111.142 18.3319 111.197 18.187L112.051 18.3409C111.982 18.5924 111.86 18.8128 111.683 19.002C111.508 19.1891 111.287 19.335 111.022 19.4396C110.758 19.5423 110.457 19.5936 110.119 19.5936ZM115.108 19.5936C114.651 19.5936 114.258 19.496 113.928 19.3008C113.6 19.1036 113.346 18.8269 113.167 18.4707C112.99 18.1125 112.901 17.6929 112.901 17.212C112.901 16.7371 112.99 16.3185 113.167 15.9563C113.346 15.5941 113.596 15.3114 113.916 15.1081C114.238 14.9049 114.614 14.8033 115.044 14.8033C115.306 14.8033 115.56 14.8465 115.805 14.9331C116.051 15.0196 116.271 15.1554 116.466 15.3406C116.661 15.5257 116.815 15.7662 116.928 16.062C117.041 16.3558 117.097 16.7129 117.097 17.1335V17.4535H113.411V16.7773H116.213C116.213 16.5399 116.164 16.3296 116.068 16.1465C115.971 15.9614 115.835 15.8155 115.66 15.7088C115.487 15.6022 115.284 15.5488 115.051 15.5488C114.797 15.5488 114.576 15.6112 114.386 15.736C114.199 15.8587 114.054 16.0197 113.952 16.2189C113.851 16.4161 113.801 16.6304 113.801 16.8619V17.3901C113.801 17.7 113.855 17.9636 113.964 18.1809C114.075 18.3983 114.228 18.5643 114.426 18.679C114.623 18.7917 114.853 18.848 115.117 18.848C115.288 18.848 115.444 18.8239 115.585 18.7756C115.726 18.7253 115.847 18.6508 115.95 18.5522C116.053 18.4536 116.131 18.3319 116.185 18.187L117.04 18.3409C116.971 18.5924 116.849 18.8128 116.671 19.002C116.496 19.1891 116.276 19.335 116.01 19.4396C115.747 19.5423 115.446 19.5936 115.108 19.5936Z" fill="white"/>
<g clip-path="url(#clip1_1201_1538)">
<path d="M151.03 0.184371C151.088 0.170339 151.225 0.171681 151.289 0.172127C151.982 0.176927 152.579 0.743164 153.189 0.895608C153.46 0.963267 154.222 0.891804 154.549 0.901099C155.455 0.9269 155.798 1.37713 156.297 2.06352C156.426 2.24152 156.631 2.50008 156.819 2.62092C157.381 2.98122 158.041 3.03653 158.513 3.55944C159.055 4.15829 158.92 4.94386 159.232 5.62944C159.304 5.78814 159.481 5.99076 159.598 6.12431C159.947 6.52114 160.298 6.86571 160.418 7.39885C160.578 8.10909 160.144 8.82414 160.145 9.45759C160.145 10.0457 160.528 10.6236 160.475 11.3078C160.423 11.981 160.103 12.267 159.681 12.7676C159.555 12.918 159.38 13.1193 159.305 13.297C159.007 14.0012 159.158 14.8386 158.571 15.4359C158.191 15.8231 157.668 15.9589 157.197 16.1987C157.015 16.2917 156.876 16.4 156.723 16.5378C156.78 16.6835 156.848 16.9414 156.894 17.097L157.195 18.1117C157.486 19.093 157.82 20.1674 158.081 21.148C158.057 21.2605 158.038 21.3669 157.936 21.4357C157.897 21.4621 157.787 21.4982 157.746 21.4935C157.474 21.4614 157.167 21.4006 156.899 21.3523L155.206 21.0492L155.2 21.0566C154.998 21.3189 154.523 21.7799 154.282 22.0325C154.09 22.2338 153.706 22.6611 153.519 22.828C153.476 22.8657 153.426 22.8941 153.371 22.9113C152.977 23.0387 152.889 22.4995 152.805 22.2338L152.56 21.4657C152.29 20.6197 151.992 19.7184 151.744 18.87L151.527 18.8933C151.35 18.9178 151.033 18.8944 150.867 18.8219C150.82 19.0131 150.733 19.2661 150.672 19.4606L150.271 20.7234L149.866 22.002C149.803 22.2008 149.684 22.681 149.55 22.8365C149.409 22.9668 149.207 22.9553 149.084 22.8247C148.532 22.2423 147.918 21.6514 147.388 21.0547C147.17 21.0739 146.662 21.1715 146.428 21.2183C145.922 21.3195 145.34 21.3975 144.845 21.5065C144.599 21.4209 144.471 21.3354 144.544 21.0497C144.624 20.7369 144.72 20.4286 144.812 20.119L145.282 18.5211L145.654 17.2581C145.716 17.0463 145.803 16.7192 145.883 16.5233C145.407 16.1729 144.8 16.0886 144.289 15.702C143.487 15.0957 143.723 14.13 143.338 13.4046C142.964 12.783 142.32 12.4132 142.177 11.6543C142.042 10.9326 142.419 10.3398 142.455 9.65398C142.481 9.18489 142.168 8.60935 142.129 8.13166C142.105 7.8294 142.097 7.57675 142.223 7.28712C142.424 6.73731 143.075 6.24832 143.29 5.78077C143.59 5.12855 143.439 4.2551 144.004 3.6554C144.48 3.14995 145.219 3.06558 145.731 2.65861C145.945 2.48826 146.285 1.96469 146.465 1.72747C147.032 0.979678 147.612 0.919301 148.499 0.973341C148.732 0.987559 149.091 0.987082 149.318 0.91229C149.932 0.709912 150.359 0.271709 151.03 0.184371ZM145.348 20.7142C145.535 20.7027 145.846 20.6345 146.046 20.5972C146.387 20.5332 146.729 20.4717 147.071 20.4125C147.316 20.3692 147.567 20.2674 147.76 20.4654C147.94 20.6489 148.136 20.8327 148.305 21.0248C148.526 21.2765 148.8 21.5236 149.016 21.7758C149.073 21.834 149.115 21.8783 149.18 21.9286C149.242 21.6909 149.323 21.4374 149.401 21.2033C149.695 20.3305 149.942 19.43 150.246 18.5617C150.077 18.4639 149.689 18.2439 149.513 18.2005C148.813 18.0273 148.031 18.3338 147.338 18.0287C146.98 17.8708 146.793 17.642 146.55 17.3413C146.52 17.3043 146.431 17.1844 146.398 17.1657L145.687 19.5676L145.468 20.3145C145.435 20.4274 145.387 20.6107 145.348 20.7142ZM151.456 18.2347C152.122 18.0482 152.579 17.6127 153.265 17.4573C153.796 17.3373 154.632 17.5603 155.104 17.3466C155.598 17.1232 155.969 16.2645 156.432 15.8791C157.002 15.4056 157.801 15.3759 158.213 14.7713C158.487 14.2221 158.405 13.5965 158.695 12.9757C158.954 12.4236 159.685 11.886 159.785 11.3809C159.888 10.8567 159.462 10.1179 159.456 9.46044C159.451 8.82757 159.875 8.01942 159.743 7.52238C159.51 6.8463 158.887 6.52383 158.581 5.86258C158.338 5.3401 158.369 4.49879 158.05 4.07445C157.72 3.63494 156.728 3.47059 156.272 3.06765C155.855 2.76945 155.472 1.90453 155.034 1.69684C154.47 1.42982 153.657 1.6979 152.998 1.55266C152.489 1.44035 151.589 0.768952 151.161 0.852557C150.575 0.929176 150.052 1.43802 149.423 1.59358C148.798 1.74822 148.116 1.53317 147.557 1.70248C146.909 2.00165 146.695 2.75862 146.136 3.21707C145.692 3.58142 144.8 3.76879 144.497 4.14832C144.041 4.71967 144.24 5.76652 143.711 6.4241C143.318 6.91199 142.697 7.42745 142.809 8.06523C142.908 8.639 143.128 9.04118 143.139 9.63908C143.15 10.258 142.759 10.9347 142.841 11.5076C142.91 11.9889 143.614 12.5224 143.871 12.952C144.021 13.172 144.094 13.4176 144.161 13.6693C144.282 14.1186 144.296 14.9009 144.724 15.1748C145.427 15.6246 146.201 15.6772 146.715 16.422C146.92 16.7178 147.26 17.207 147.588 17.3924C148.194 17.6316 148.855 17.3634 149.554 17.5124C150.238 17.6585 150.844 18.2478 151.456 18.2347ZM152.378 18.6106C152.6 19.3961 152.888 20.1943 153.124 20.9782C153.202 21.2372 153.377 21.7107 153.429 21.9497C153.492 21.8692 153.545 21.8092 153.614 21.7343L154.426 20.8837C155.018 20.2625 154.858 20.288 155.728 20.4479L156.585 20.6026C156.798 20.642 157.041 20.6937 157.252 20.7155C157.123 20.3198 156.273 17.3285 156.216 17.2642L156.207 17.2609C155.812 17.736 155.52 18.0375 154.871 18.0932C154.079 18.1613 153.507 17.9236 152.79 18.3754C152.674 18.4486 152.501 18.5272 152.378 18.6106Z" fill="white"/>
<path d="M151.177 2.79996C154.896 2.73245 157.967 5.69233 158.036 9.4121C158.105 13.1319 155.147 16.2038 151.427 16.2745C147.705 16.3454 144.631 13.3846 144.561 9.66256C144.492 5.94049 147.454 2.8675 151.177 2.79996ZM151.501 15.5889C154.842 15.4767 157.459 12.6791 157.35 9.33865C157.24 5.99824 154.444 3.37857 151.104 3.48593C147.76 3.5934 145.137 6.3926 145.247 9.73645C145.357 13.0803 148.158 15.7012 151.501 15.5889Z" fill="white"/>
<path d="M154.264 6.78047C154.327 6.77468 154.375 6.77401 154.439 6.7776C154.652 6.78754 154.852 6.88442 154.992 7.04564C155.239 7.32534 155.274 7.75181 155.055 8.05705C154.825 8.37759 154.575 8.68102 154.331 8.99125L152.874 10.8401C152.567 11.2282 152.261 11.618 151.958 12.0096C151.723 12.3124 151.437 12.6942 151.163 12.9509C150.938 13.132 150.613 13.2063 150.337 13.1806C149.793 13.1301 149.541 12.7501 149.217 12.3676L148.349 11.3346C148.142 11.0883 147.933 10.8436 147.723 10.6004C147.576 10.4294 147.419 10.261 147.296 10.0724C147.127 9.81484 147.153 9.41858 147.34 9.17816C147.471 9.00933 147.665 8.90007 147.877 8.87482C148.024 8.85824 148.173 8.88436 148.306 8.95006C148.505 9.04997 148.91 9.40718 149.1 9.56447L150.29 10.5467C150.295 10.5405 150.299 10.5344 150.304 10.5283C150.44 10.3564 150.646 10.1629 150.801 10.0035C151.138 9.65739 151.495 9.32607 151.833 8.98231L153.237 7.55775C153.437 7.35681 153.635 7.14112 153.846 6.95147C153.965 6.84417 154.107 6.79968 154.264 6.78047ZM148.484 10.4357L149.515 11.6528C149.728 11.9093 149.946 12.1916 150.183 12.4229C150.308 12.5436 150.628 12.5256 150.752 12.3964C150.977 12.161 151.171 11.8863 151.372 11.6288L152.516 10.1828L153.949 8.3645C154.093 8.18014 154.441 7.76733 154.549 7.58535C154.494 7.5235 154.432 7.43132 154.346 7.42694C154.089 7.63718 153.758 8.01809 153.512 8.26462L151.426 10.3625C151.279 10.5092 151.081 10.6923 150.949 10.8417C150.311 11.5638 149.986 11.1873 149.377 10.6818L148.425 9.89467C148.315 9.80273 148.057 9.5446 147.93 9.56603C147.892 9.59923 147.888 9.60396 147.873 9.65205C147.885 9.76977 148.371 10.3038 148.484 10.4357Z" fill="white"/>
</g>
<path d="M167.72 3.31818V9.5H166.785V4.25391H166.748L165.269 5.21982V4.32635L166.812 3.31818H167.72ZM171.545 9.60263C171.068 9.60062 170.66 9.47485 170.322 9.22532C169.984 8.97579 169.726 8.61257 169.546 8.13565C169.367 7.65874 169.278 7.08422 169.278 6.41211C169.278 5.74201 169.367 5.16951 169.546 4.6946C169.728 4.2197 169.987 3.85748 170.325 3.60795C170.665 3.35843 171.072 3.23366 171.545 3.23366C172.018 3.23366 172.423 3.35943 172.761 3.61097C173.099 3.8605 173.358 4.22272 173.537 4.69762C173.718 5.17051 173.809 5.74201 173.809 6.41211C173.809 7.08623 173.719 7.66175 173.54 8.13867C173.361 8.61358 173.102 8.9768 172.764 9.22834C172.426 9.47786 172.02 9.60263 171.545 9.60263ZM171.545 8.7967C171.963 8.7967 172.29 8.59245 172.526 8.18395C172.763 7.77545 172.882 7.18484 172.882 6.41211C172.882 5.89897 172.828 5.46532 172.719 5.11115C172.612 4.75497 172.458 4.48532 172.257 4.3022C172.058 4.11707 171.82 4.0245 171.545 4.0245C171.128 4.0245 170.801 4.22976 170.564 4.64027C170.326 5.05078 170.206 5.64139 170.204 6.41211C170.204 6.92726 170.258 7.36293 170.364 7.71911C170.473 8.07327 170.627 8.34192 170.826 8.52504C171.025 8.70614 171.265 8.7967 171.545 8.7967ZM177.031 9.60263C176.555 9.60062 176.147 9.47485 175.809 9.22532C175.471 8.97579 175.212 8.61257 175.033 8.13565C174.854 7.65874 174.765 7.08422 174.765 6.41211C174.765 5.74201 174.854 5.16951 175.033 4.6946C175.214 4.2197 175.474 3.85748 175.812 3.60795C176.152 3.35843 176.559 3.23366 177.031 3.23366C177.504 3.23366 177.91 3.35943 178.248 3.61097C178.586 3.8605 178.845 4.22272 179.024 4.69762C179.205 5.17051 179.295 5.74201 179.295 6.41211C179.295 7.08623 179.206 7.66175 179.027 8.13867C178.848 8.61358 178.589 8.9768 178.251 9.22834C177.913 9.47786 177.506 9.60263 177.031 9.60263ZM177.031 8.7967C177.45 8.7967 177.777 8.59245 178.012 8.18395C178.25 7.77545 178.369 7.18484 178.369 6.41211C178.369 5.89897 178.314 5.46532 178.206 5.11115C178.099 4.75497 177.945 4.48532 177.744 4.3022C177.545 4.11707 177.307 4.0245 177.031 4.0245C176.615 4.0245 176.288 4.22976 176.05 4.64027C175.813 5.05078 175.693 5.64139 175.691 6.41211C175.691 6.92726 175.745 7.36293 175.851 7.71911C175.96 8.07327 176.114 8.34192 176.313 8.52504C176.512 8.70614 176.752 8.7967 177.031 8.7967ZM183.593 8.34091V8.01491C183.593 7.78149 183.641 7.56818 183.738 7.375C183.836 7.17981 183.979 7.02385 184.166 6.90714C184.356 6.78841 184.584 6.72905 184.852 6.72905C185.125 6.72905 185.355 6.78741 185.54 6.90412C185.725 7.02083 185.865 7.17679 185.959 7.37198C186.056 7.56718 186.104 7.78149 186.104 8.01491V8.34091C186.104 8.57434 186.056 8.78865 185.959 8.98384C185.863 9.17702 185.721 9.33298 185.534 9.4517C185.349 9.56842 185.121 9.62678 184.852 9.62678C184.58 9.62678 184.35 9.56842 184.163 9.4517C183.976 9.33298 183.834 9.17702 183.738 8.98384C183.641 8.78865 183.593 8.57434 183.593 8.34091ZM184.296 8.01491V8.34091C184.296 8.51397 184.337 8.67093 184.42 8.81179C184.502 8.95265 184.646 9.02308 184.852 9.02308C185.055 9.02308 185.197 8.95265 185.277 8.81179C185.358 8.67093 185.398 8.51397 185.398 8.34091V8.01491C185.398 7.84186 185.359 7.6849 185.28 7.54403C185.204 7.40317 185.061 7.33274 184.852 7.33274C184.65 7.33274 184.507 7.40317 184.423 7.54403C184.338 7.6849 184.296 7.84186 184.296 8.01491ZM180.484 4.80327V4.47727C180.484 4.24384 180.532 4.02953 180.629 3.83434C180.727 3.63915 180.87 3.48319 181.057 3.36648C181.247 3.24976 181.475 3.19141 181.743 3.19141C182.016 3.19141 182.246 3.24976 182.431 3.36648C182.616 3.48319 182.756 3.63915 182.85 3.83434C182.945 4.02953 182.992 4.24384 182.992 4.47727V4.80327C182.992 5.0367 182.944 5.25101 182.847 5.4462C182.753 5.63938 182.612 5.79534 182.425 5.91406C182.24 6.03078 182.012 6.08913 181.743 6.08913C181.469 6.08913 181.238 6.03078 181.051 5.91406C180.866 5.79534 180.725 5.63938 180.629 5.4462C180.532 5.25101 180.484 5.0367 180.484 4.80327ZM181.19 4.47727V4.80327C181.19 4.97633 181.23 5.13329 181.311 5.27415C181.393 5.41501 181.537 5.48544 181.743 5.48544C181.944 5.48544 182.085 5.41501 182.165 5.27415C182.248 5.13329 182.289 4.97633 182.289 4.80327V4.47727C182.289 4.30421 182.25 4.14725 182.171 4.00639C182.093 3.86553 181.95 3.7951 181.743 3.7951C181.541 3.7951 181.398 3.86553 181.314 4.00639C181.231 4.14725 181.19 4.30421 181.19 4.47727ZM180.771 9.5L185.021 3.31818H185.742L181.492 9.5H180.771ZM193.111 4.94212C193.079 4.65637 192.946 4.43501 192.712 4.27805C192.479 4.11908 192.185 4.0396 191.831 4.0396C191.577 4.0396 191.358 4.07984 191.173 4.16033C190.988 4.23881 190.844 4.34748 190.741 4.48633C190.641 4.62317 190.59 4.77912 190.59 4.95419C190.59 5.10109 190.625 5.22786 190.693 5.33452C190.763 5.44117 190.855 5.53072 190.968 5.60316C191.082 5.67359 191.205 5.73295 191.336 5.78125C191.467 5.82753 191.593 5.86577 191.713 5.89595L192.317 6.05291C192.514 6.10121 192.716 6.16661 192.924 6.24911C193.131 6.33162 193.323 6.44028 193.5 6.57511C193.677 6.70993 193.82 6.87695 193.929 7.07617C194.04 7.27539 194.095 7.51385 194.095 7.79155C194.095 8.14169 194.004 8.45259 193.823 8.72425C193.644 8.99592 193.384 9.21023 193.041 9.36719C192.701 9.52415 192.29 9.60263 191.807 9.60263C191.344 9.60263 190.944 9.52918 190.606 9.38228C190.267 9.23538 190.003 9.02711 189.812 8.75746C189.62 8.4858 189.515 8.16383 189.495 7.79155H190.43C190.449 8.01491 190.521 8.20105 190.648 8.34996C190.777 8.49686 190.941 8.60653 191.14 8.67898C191.341 8.74941 191.561 8.78462 191.801 8.78462C192.064 8.78462 192.299 8.74337 192.504 8.66087C192.711 8.57635 192.874 8.45964 192.993 8.31072C193.112 8.1598 193.171 7.98372 193.171 7.78249C193.171 7.59937 193.119 7.44946 193.014 7.33274C192.912 7.21603 192.772 7.11944 192.595 7.04297C192.42 6.9665 192.221 6.89909 192 6.84073L191.27 6.64151C190.775 6.50669 190.382 6.30848 190.092 6.04688C189.805 5.78527 189.661 5.43916 189.661 5.00852C189.661 4.65234 189.757 4.34144 189.951 4.07582C190.144 3.81019 190.405 3.60393 190.735 3.45703C191.065 3.30812 191.438 3.23366 191.852 3.23366C192.271 3.23366 192.64 3.30711 192.96 3.45401C193.282 3.60091 193.535 3.80315 193.721 4.06072C193.906 4.31629 194.002 4.61008 194.01 4.94212H193.111ZM197.135 9.59357C196.678 9.59357 196.285 9.49598 195.955 9.30078C195.627 9.10357 195.373 8.82688 195.194 8.4707C195.017 8.11251 194.929 7.69294 194.929 7.212C194.929 6.7371 195.017 6.31854 195.194 5.95632C195.373 5.5941 195.623 5.31138 195.943 5.10813C196.265 4.90489 196.641 4.80327 197.072 4.80327C197.333 4.80327 197.587 4.84653 197.832 4.93306C198.078 5.01959 198.298 5.15542 198.494 5.34055C198.689 5.52569 198.843 5.76616 198.955 6.06197C199.068 6.35576 199.124 6.71295 199.124 7.13352V7.45348H195.439V6.77734H198.24C198.24 6.53989 198.192 6.3296 198.095 6.14648C197.998 5.96135 197.863 5.81546 197.688 5.70881C197.515 5.60215 197.311 5.54883 197.078 5.54883C196.824 5.54883 196.603 5.61121 196.414 5.73597C196.227 5.85872 196.082 6.01971 195.979 6.21893C195.879 6.41613 195.828 6.63044 195.828 6.86186V7.39009C195.828 7.69999 195.883 7.9636 195.991 8.18093C196.102 8.39826 196.256 8.56428 196.453 8.67898C196.65 8.79167 196.881 8.84801 197.144 8.84801C197.315 8.84801 197.471 8.82386 197.612 8.77557C197.753 8.72526 197.875 8.6508 197.977 8.5522C198.08 8.4536 198.158 8.33185 198.213 8.18697L199.067 8.34091C198.999 8.59245 198.876 8.8128 198.699 9.00195C198.524 9.1891 198.303 9.33499 198.038 9.43963C197.774 9.54226 197.473 9.59357 197.135 9.59357ZM202.079 9.59357C201.63 9.59357 201.244 9.49195 200.92 9.28871C200.598 9.08345 200.35 8.80072 200.177 8.44052C200.004 8.08031 199.917 7.66779 199.917 7.20295C199.917 6.73207 200.006 6.31652 200.183 5.95632C200.36 5.5941 200.61 5.31138 200.932 5.10813C201.254 4.90489 201.633 4.80327 202.07 4.80327C202.422 4.80327 202.736 4.86867 203.011 4.99947C203.287 5.12826 203.509 5.30936 203.678 5.54279C203.85 5.77622 203.951 6.04889 203.983 6.3608H203.105C203.057 6.14347 202.946 5.95632 202.773 5.79936C202.602 5.6424 202.372 5.56392 202.085 5.56392C201.833 5.56392 201.613 5.63033 201.424 5.76314C201.237 5.89394 201.091 6.08108 200.986 6.32457C200.881 6.56605 200.829 6.8518 200.829 7.18182C200.829 7.51989 200.88 7.81167 200.983 8.05717C201.086 8.30268 201.231 8.49284 201.418 8.62766C201.607 8.76249 201.829 8.8299 202.085 8.8299C202.256 8.8299 202.411 8.79871 202.55 8.73633C202.69 8.67193 202.808 8.58037 202.903 8.46165C202.999 8.34292 203.067 8.20005 203.105 8.03303H203.983C203.951 8.33286 203.854 8.6005 203.691 8.83594C203.528 9.07138 203.309 9.25651 203.036 9.39134C202.764 9.52616 202.445 9.59357 202.079 9.59357ZM207.885 7.57724V4.86364H208.791V9.5H207.904V8.69709H207.855C207.749 8.9446 207.578 9.15086 207.342 9.31587C207.109 9.47887 206.818 9.56037 206.47 9.56037C206.172 9.56037 205.908 9.49497 205.679 9.36417C205.452 9.23136 205.272 9.03516 205.142 8.77557C205.013 8.51598 204.949 8.19502 204.949 7.81268V4.86364H205.851V7.70401C205.851 8.01995 205.939 8.27148 206.114 8.45863C206.289 8.64577 206.516 8.73935 206.796 8.73935C206.965 8.73935 207.133 8.69709 207.3 8.61257C207.469 8.52805 207.609 8.40027 207.719 8.22923C207.832 8.05818 207.887 7.84085 207.885 7.57724ZM210.004 9.5V4.86364H210.876V5.60014H210.924C211.009 5.35062 211.158 5.15442 211.371 5.01154C211.586 4.86665 211.83 4.79421 212.102 4.79421C212.158 4.79421 212.224 4.79622 212.301 4.80025C212.379 4.80427 212.441 4.8093 212.485 4.81534V5.67862C212.449 5.66856 212.384 5.65749 212.292 5.64542C212.199 5.63133 212.107 5.62429 212.014 5.62429C211.801 5.62429 211.611 5.66957 211.443 5.76012C211.278 5.84866 211.148 5.97242 211.051 6.13139C210.955 6.28835 210.906 6.46745 210.906 6.66868V9.5H210.004ZM215.098 9.59357C214.641 9.59357 214.248 9.49598 213.918 9.30078C213.59 9.10357 213.336 8.82688 213.157 8.4707C212.98 8.11251 212.892 7.69294 212.892 7.212C212.892 6.7371 212.98 6.31854 213.157 5.95632C213.336 5.5941 213.586 5.31138 213.906 5.10813C214.228 4.90489 214.604 4.80327 215.035 4.80327C215.296 4.80327 215.55 4.84653 215.795 4.93306C216.041 5.01959 216.261 5.15542 216.456 5.34055C216.652 5.52569 216.806 5.76616 216.918 6.06197C217.031 6.35576 217.087 6.71295 217.087 7.13352V7.45348H213.402V6.77734H216.203C216.203 6.53989 216.155 6.3296 216.058 6.14648C215.961 5.96135 215.826 5.81546 215.65 5.70881C215.477 5.60215 215.274 5.54883 215.041 5.54883C214.787 5.54883 214.566 5.61121 214.377 5.73597C214.19 5.85872 214.045 6.01971 213.942 6.21893C213.841 6.41613 213.791 6.63044 213.791 6.86186V7.39009C213.791 7.69999 213.845 7.9636 213.954 8.18093C214.065 8.39826 214.219 8.56428 214.416 8.67898C214.613 8.79167 214.844 8.84801 215.107 8.84801C215.278 8.84801 215.434 8.82386 215.575 8.77557C215.716 8.72526 215.838 8.6508 215.94 8.5522C216.043 8.4536 216.121 8.33185 216.176 8.18697L217.03 8.34091C216.961 8.59245 216.839 8.8128 216.662 9.00195C216.487 9.1891 216.266 9.33499 216.001 9.43963C215.737 9.54226 215.436 9.59357 215.098 9.59357ZM170.829 16.4091C170.829 17.0691 170.709 17.6366 170.467 18.1115C170.226 18.5844 169.895 18.9486 169.474 19.2042C169.055 19.4577 168.58 19.5845 168.046 19.5845C167.511 19.5845 167.033 19.4577 166.612 19.2042C166.194 18.9486 165.864 18.5834 165.622 18.1085C165.381 17.6336 165.26 17.0671 165.26 16.4091C165.26 15.7491 165.381 15.1826 165.622 14.7097C165.864 14.2348 166.194 13.8706 166.612 13.617C167.033 13.3614 167.511 13.2337 168.046 13.2337C168.58 13.2337 169.055 13.3614 169.474 13.617C169.895 13.8706 170.226 14.2348 170.467 14.7097C170.709 15.1826 170.829 15.7491 170.829 16.4091ZM169.906 16.4091C169.906 15.906 169.824 15.4824 169.661 15.1383C169.5 14.7922 169.279 14.5306 168.997 14.3535C168.717 14.1744 168.4 14.0849 168.046 14.0849C167.69 14.0849 167.372 14.1744 167.092 14.3535C166.813 14.5306 166.591 14.7922 166.428 15.1383C166.267 15.4824 166.187 15.906 166.187 16.4091C166.187 16.9122 166.267 17.3368 166.428 17.6829C166.591 18.027 166.813 18.2886 167.092 18.4677C167.372 18.6448 167.69 18.7333 168.046 18.7333C168.4 18.7333 168.717 18.6448 168.997 18.4677C169.279 18.2886 169.5 18.027 169.661 17.6829C169.824 17.3368 169.906 16.9122 169.906 16.4091ZM171.92 19.5V14.8636H172.792V15.6001H172.84C172.925 15.3506 173.074 15.1544 173.287 15.0115C173.502 14.8667 173.746 14.7942 174.018 14.7942C174.074 14.7942 174.14 14.7962 174.217 14.8002C174.295 14.8043 174.357 14.8093 174.401 14.8153V15.6786C174.365 15.6686 174.3 15.6575 174.208 15.6454C174.115 15.6313 174.023 15.6243 173.93 15.6243C173.717 15.6243 173.527 15.6696 173.36 15.7601C173.194 15.8487 173.064 15.9724 172.967 16.1314C172.871 16.2884 172.822 16.4674 172.822 16.6687V19.5H171.92ZM176.752 19.5906C176.377 19.5906 176.043 19.495 175.749 19.3038C175.458 19.1106 175.228 18.8359 175.061 18.4798C174.896 18.1216 174.814 17.6919 174.814 17.1909C174.814 16.6898 174.897 16.2612 175.064 15.905C175.233 15.5488 175.465 15.2762 175.758 15.087C176.052 14.8978 176.385 14.8033 176.758 14.8033C177.045 14.8033 177.277 14.8516 177.452 14.9482C177.629 15.0427 177.766 15.1534 177.862 15.2802C177.961 15.407 178.037 15.5186 178.092 15.6152H178.146V13.3182H179.049V19.5H178.167V18.7786H178.092C178.037 18.8772 177.959 18.9899 177.856 19.1167C177.756 19.2434 177.617 19.3541 177.44 19.4487C177.263 19.5433 177.033 19.5906 176.752 19.5906ZM176.951 18.8208C177.21 18.8208 177.43 18.7524 177.609 18.6156C177.79 18.4767 177.927 18.2846 178.019 18.0391C178.114 17.7936 178.161 17.5078 178.161 17.1818C178.161 16.8598 178.115 16.5781 178.022 16.3366C177.93 16.0952 177.794 15.907 177.615 15.7722C177.436 15.6374 177.214 15.57 176.951 15.57C176.679 15.57 176.453 15.6404 176.272 15.7812C176.09 15.9221 175.954 16.1143 175.861 16.3578C175.771 16.6013 175.725 16.8759 175.725 17.1818C175.725 17.4917 175.772 17.7704 175.864 18.0179C175.957 18.2654 176.093 18.4616 176.275 18.6065C176.458 18.7494 176.683 18.8208 176.951 18.8208ZM182.335 19.5936C181.878 19.5936 181.485 19.496 181.155 19.3008C180.827 19.1036 180.573 18.8269 180.394 18.4707C180.217 18.1125 180.128 17.6929 180.128 17.212C180.128 16.7371 180.217 16.3185 180.394 15.9563C180.573 15.5941 180.823 15.3114 181.143 15.1081C181.465 14.9049 181.841 14.8033 182.272 14.8033C182.533 14.8033 182.787 14.8465 183.032 14.9331C183.278 15.0196 183.498 15.1554 183.693 15.3406C183.888 15.5257 184.042 15.7662 184.155 16.062C184.268 16.3558 184.324 16.7129 184.324 17.1335V17.4535H180.639V16.7773H183.44C183.44 16.5399 183.391 16.3296 183.295 16.1465C183.198 15.9614 183.062 15.8155 182.887 15.7088C182.714 15.6022 182.511 15.5488 182.278 15.5488C182.024 15.5488 181.803 15.6112 181.614 15.736C181.426 15.8587 181.281 16.0197 181.179 16.2189C181.078 16.4161 181.028 16.6304 181.028 16.8619V17.3901C181.028 17.7 181.082 17.9636 181.191 18.1809C181.302 18.3983 181.456 18.5643 181.653 18.679C181.85 18.7917 182.08 18.848 182.344 18.848C182.515 18.848 182.671 18.8239 182.812 18.7756C182.953 18.7253 183.074 18.6508 183.177 18.5522C183.28 18.4536 183.358 18.3319 183.413 18.187L184.267 18.3409C184.198 18.5924 184.076 18.8128 183.898 19.002C183.723 19.1891 183.503 19.335 183.237 19.4396C182.974 19.5423 182.673 19.5936 182.335 19.5936ZM185.325 19.5V14.8636H186.198V15.6001H186.246C186.331 15.3506 186.48 15.1544 186.693 15.0115C186.908 14.8667 187.152 14.7942 187.423 14.7942C187.48 14.7942 187.546 14.7962 187.623 14.8002C187.701 14.8043 187.762 14.8093 187.807 14.8153V15.6786C187.77 15.6686 187.706 15.6575 187.613 15.6454C187.521 15.6313 187.428 15.6243 187.336 15.6243C187.122 15.6243 186.932 15.6696 186.765 15.7601C186.6 15.8487 186.469 15.9724 186.373 16.1314C186.276 16.2884 186.228 16.4674 186.228 16.6687V19.5H185.325Z" fill="white"/>
<defs>
<clipPath id="clip0_1201_1538">
<rect width="24" height="9.98878" fill="white" transform="translate(4 5)"/>
</clipPath>
<clipPath id="clip1_1201_1538">
<rect width="18.7804" height="23" fill="white" transform="translate(142)"/>
</clipPath>
</defs>
</svg>
